<svg width="15" height="15" viewBox="0 0 40 40" fill="none" xmlns="http://www.w3.org/2000/svg">
<g clip-path="url(#clip0_21_123)">
<path d="M31.1111 35.5556H17.0333L21.1111 31.5222L10.1111 20.5222L3.93334 26.6667C3.74252 26.8557 3.59106 27.0807 3.48769 27.3286C3.38432 27.5766 3.3311 27.8425 3.3311 28.1111C3.3311 28.3797 3.38432 28.6457 3.48769 28.8936C3.59106 29.1415 3.74252 29.3665 3.93334 29.5556L10 35.5556H3.33334C3.03866 35.5556 2.75604 35.6726 2.54767 35.881C2.33929 36.0894 2.22223 36.372 2.22223 36.6667C2.22223 36.9614 2.33929 37.244 2.54767 37.4523C2.75604 37.6607 3.03866 37.7778 3.33334 37.7778H31.1111C31.4058 37.7778 31.6884 37.6607 31.8968 37.4523C32.1052 37.244 32.2222 36.9614 32.2222 36.6667C32.2222 36.372 32.1052 36.0894 31.8968 35.881C31.6884 35.6726 31.4058 35.5556 31.1111 35.5556Z" fill="#1D3B76"/>
<path d="M37.8667 11.8333L29.7556 3.72222C29.5665 3.53141 29.3415 3.37994 29.0936 3.27657C28.8457 3.1732 28.5798 3.11998 28.3111 3.11998C28.0425 3.11998 27.7766 3.1732 27.5287 3.27657C27.2807 3.37994 27.0557 3.53141 26.8667 3.72222L11.6334 18.9556L22.6334 29.9556L37.8667 14.7222C38.2467 14.3375 38.4598 13.8185 38.4598 13.2778C38.4598 12.737 38.2467 12.2181 37.8667 11.8333Z" fill="#1D3B76"/>
</g>
<defs>
<clipPath id="clip0_21_123">
<rect width="40" height="40" fill="white"/>
</clipPath>
</defs>
</svg>
