<svg width="25" height="25" viewBox="0 0 25 25" fill="none" xmlns="http://www.w3.org/2000/svg">
<path fill-rule="evenodd" clip-rule="evenodd" d="M16.22 13.8491C17.264 10.0584 14.792 6.14316 10.731 5.08457C6.14496 3.88781 -0.364042 6.99548 1.08396 10.9818C1.56396 12.3001 2.48796 12.6086 4.23096 12.6329L4.33996 12.6348C5.26096 12.6455 5.51996 12.7039 5.59796 12.8265C5.72496 13.0289 5.72696 13.3509 5.58396 14.2373C5.51596 14.6557 5.49396 14.8016 5.46796 15.0303C5.30896 16.4226 5.55096 17.5085 6.48796 18.4912C9.41596 21.5589 15.041 18.1282 16.22 13.8491ZM2.96996 10.3318C2.24096 8.32748 6.90596 6.10035 10.213 6.9624C13.23 7.74954 15.039 10.6149 14.288 13.3441C13.45 16.3876 9.50596 18.7928 7.95396 17.166C7.47396 16.6639 7.35496 16.1268 7.45596 15.2443C7.47696 15.0556 7.49696 14.9252 7.55996 14.538C7.77896 13.1787 7.77596 12.558 7.30196 11.8078C6.70796 10.8669 6.00196 10.7083 4.36496 10.6879L4.25896 10.686C3.29496 10.6733 3.06696 10.5965 2.96996 10.3318Z" fill="black"/>
<path d="M6 9.99997C5.66848 9.99997 5.35054 9.87183 5.11612 9.64375C4.8817 9.41566 4.75 9.10631 4.75 8.78375C4.75 8.46119 4.8817 8.15184 5.11612 7.92376C5.35054 7.69567 5.66848 7.56754 6 7.56754C6.33152 7.56754 6.64946 7.69567 6.88388 7.92376C7.1183 8.15184 7.25 8.46119 7.25 8.78375C7.25 9.10631 7.1183 9.41566 6.88388 9.64375C6.64946 9.87183 6.33152 9.99997 6 9.99997ZM9.75 9.99997C9.41848 9.99997 9.10054 9.87183 8.86612 9.64375C8.6317 9.41566 8.5 9.10631 8.5 8.78375C8.5 8.46119 8.6317 8.15184 8.86612 7.92376C9.10054 7.69567 9.41848 7.56754 9.75 7.56754C10.0815 7.56754 10.3995 7.69567 10.6339 7.92376C10.8683 8.15184 11 8.46119 11 8.78375C11 9.10631 10.8683 9.41566 10.6339 9.64375C10.3995 9.87183 10.0815 9.99997 9.75 9.99997ZM12.25 12.9189C11.9185 12.9189 11.6005 12.7908 11.3661 12.5627C11.1317 12.3346 11 12.0252 11 11.7027C11 11.3801 11.1317 11.0708 11.3661 10.8427C11.6005 10.6146 11.9185 10.4865 12.25 10.4865C12.5815 10.4865 12.8995 10.6146 13.1339 10.8427C13.3683 11.0708 13.5 11.3801 13.5 11.7027C13.5 12.0252 13.3683 12.3346 13.1339 12.5627C12.8995 12.7908 12.5815 12.9189 12.25 12.9189ZM10.75 16.3243C10.4185 16.3243 10.1005 16.1962 9.86612 15.9681C9.6317 15.74 9.5 15.4306 9.5 15.1081C9.5 14.7855 9.6317 14.4762 9.86612 14.2481C10.1005 14.02 10.4185 13.8919 10.75 13.8919C11.0815 13.8919 11.3995 14.02 11.6339 14.2481C11.8683 14.4762 12 14.7855 12 15.1081C12 15.4306 11.8683 15.74 11.6339 15.9681C11.3995 16.1962 11.0815 16.3243 10.75 16.3243ZM14.37 3.77781C14.4886 3.716 14.6187 3.6781 14.7527 3.66638C14.8867 3.65467 15.0217 3.66937 15.1497 3.70961C15.2777 3.74985 15.3961 3.8148 15.4977 3.90058C15.5993 3.98636 15.682 4.09121 15.741 4.20883L19.834 12.3818C19.9023 12.5287 19.9106 12.6954 19.8571 12.8481C19.8037 13.0007 19.6925 13.1278 19.5461 13.2035C19.3998 13.2792 19.2293 13.2979 19.0694 13.2557C18.9094 13.2134 18.772 13.1136 18.685 12.9763L13.977 5.1244C13.9093 5.01145 13.8658 4.88636 13.849 4.75664C13.8322 4.62692 13.8425 4.49523 13.8793 4.36948C13.9161 4.24373 13.9786 4.12651 14.0631 4.02484C14.1476 3.92317 14.2523 3.83914 14.371 3.77781H14.37Z" fill="black"/>
<path fill-rule="evenodd" clip-rule="evenodd" d="M12.5369 3.66011C13.0239 4.55038 13.8429 4.79946 14.6349 4.38984C15.4259 3.98119 15.6729 3.18043 15.1859 2.29016C14.6299 1.27049 13.4379 0.346163 12.6479 0.753839C11.8579 1.16249 11.9799 2.64043 12.5379 3.66011H12.5369ZM13.4199 3.20281C13.2428 2.85686 13.1343 2.48157 13.0999 2.09654C13.085 1.93558 13.0911 1.77344 13.1179 1.61395L13.1359 1.6227C13.1859 1.64606 13.3409 1.71611 13.5389 1.86984C13.8409 2.10433 14.1409 2.44973 14.3029 2.74649C14.5319 3.16487 14.4669 3.37503 14.1649 3.53168C13.8649 3.68735 13.6489 3.62119 13.4199 3.20379V3.20281Z" fill="black"/>
</svg>
