<svg width="17" height="17" viewBox="0 0 38 28" fill="none" xmlns="http://www.w3.org/2000/svg">
<path d="M1.9375 0.25H36.0625C36.7885 0.25 37.375 0.808594 37.375 1.5V26.5C37.375 27.1914 36.7885 27.75 36.0625 27.75H1.9375C1.21152 27.75 0.625 27.1914 0.625 26.5V1.5C0.625 0.808594 1.21152 0.25 1.9375 0.25ZM26.1367 5.875C24.6889 5.875 23.5117 6.99609 23.5117 8.375C23.5117 9.75391 24.6889 10.875 26.1367 10.875C27.5846 10.875 28.7617 9.75391 28.7617 8.375C28.7617 6.99609 27.5846 5.875 26.1367 5.875ZM5.05879 22.9492C5.11854 22.997 5.19403 23.0233 5.27207 23.0234H32.732C32.9125 23.0234 33.0602 22.8828 33.0602 22.7109C33.0602 22.6367 33.0314 22.5664 32.9822 22.5078L25.9973 14.6172C25.8824 14.4844 25.6732 14.4688 25.5338 14.5781C25.5215 14.5898 25.5051 14.6016 25.4928 14.6172L21.4158 19.2266L14.9312 11.9023C14.8164 11.7695 14.6072 11.7539 14.4678 11.8633C14.4555 11.875 14.4391 11.8867 14.4268 11.9023L5.00957 22.5117C4.90293 22.6406 4.91933 22.8398 5.05879 22.9492Z" fill="#1D3B76"/>
</svg>
