<svg width="20" height="20" viewBox="0 0 33 36" fill="none" xmlns="http://www.w3.org/2000/svg">
<path d="M17.3333 0.333344H3.99996C2.14996 0.333344 0.666626 1.81668 0.666626 3.66668V30.3333C0.666626 32.1833 2.14996 33.6667 3.99996 33.6667H17.0166C16.1333 32.15 15.6666 30.4167 15.6666 28.6667C15.6666 23.15 20.15 18.6667 25.6666 18.6667C26.2333 18.6667 26.7833 18.7167 27.3333 18.8V10.3333L17.3333 0.333344ZM15.6666 12V2.83334L24.8333 12H15.6666ZM32.3333 30.3333H27.3333V35.3333H24V30.3333H19V27H24V22H27.3333V27H32.3333V30.3333Z" fill="#1D3B76"/>
</svg>
