<svg width="25" height="25" viewBox="0 0 42 38" fill="none" xmlns="http://www.w3.org/2000/svg">
<path d="M37.5 0.666672H4.49998C2.48331 0.666672 0.833313 2.31667 0.833313 4.33334V26.3333C0.833313 27.3058 1.21962 28.2384 1.90725 28.9261C2.59489 29.6137 3.52752 30 4.49998 30H17.3333V33.6667H13.6666V37.3333H28.3333V33.6667H24.6666V30H37.5C39.535 30 41.1666 28.3683 41.1666 26.3333V4.33334C41.1666 3.36088 40.7803 2.42825 40.0927 1.74061C39.4051 1.05298 38.4724 0.666672 37.5 0.666672ZM37.5 26.3333H4.49998V4.33334H37.5V26.3333ZM28.04 12.0333L26.1883 13.885L22.3933 10.1633L24.245 8.29334C24.6116 7.90834 25.235 7.89 25.675 8.29334L28.04 10.585C28.425 10.97 28.4433 11.5933 28.04 12.0333ZM13.6666 18.835L21.3116 11.1533L25.1066 14.9667L17.48 22.6667H13.6666V18.835Z" fill="#1D3B76"/>
</svg>
