<svg width="17" height="17" viewBox="0 0 40 40" fill="none" xmlns="http://www.w3.org/2000/svg">
<path d="M16 23V39H0V23H16ZM12 27H4V35H12V27ZM18 0L29 18H7L18 0ZM18 7.72L14.16 14H21.84L18 7.72ZM29 22C34 22 38 26 38 31C38 36 34 40 29 40C24 40 20 36 20 31C20 26 24 22 29 22ZM29 26C27.6739 26 26.4021 26.5268 25.4645 27.4645C24.5268 28.4021 24 29.6739 24 31C24 32.3261 24.5268 33.5979 25.4645 34.5355C26.4021 35.4732 27.6739 36 29 36C30.3261 36 31.5979 35.4732 32.5355 34.5355C33.4732 33.5979 34 32.3261 34 31C34 29.6739 33.4732 28.4021 32.5355 27.4645C31.5979 26.5268 30.3261 26 29 26Z" fill="#1D3B76"/>
</svg>
