<svg width="38" height="40" viewBox="0 0 38 40" fill="none" xmlns="http://www.w3.org/2000/svg">
<path d="M13.2734 31.0352C12.8568 31.0352 12.5443 30.8464 12.3359 30.4688C12.2578 30.3255 12.1211 30.0781 11.9258 29.7266C11.7305 29.375 11.5286 29.0104 11.3203 28.6328C11.112 28.2552 10.9232 27.8971 10.7539 27.5586C10.5846 27.2201 10.5 26.9922 10.5 26.875C10.5 26.6667 10.5456 26.4453 10.6367 26.2109C10.7279 25.9766 10.8451 25.7422 10.9883 25.5078C11.1315 25.2734 11.2682 25.0521 11.3984 24.8438C11.5286 24.6354 11.6458 24.4531 11.75 24.2969L10.5 23.3008H14.3477L15.2656 27.0898L13.7617 25.8984L12.6875 28.0664H16.2617V31.0352H13.2734ZM17.7852 18.457L16.1445 21.6797L13.6641 20.4297L14.8359 18.1055C15.0182 17.7148 15.3307 17.5195 15.7734 17.5195L20.0898 17.5C20.5065 17.5 20.819 17.6953 21.0273 18.0859L22.082 20.0586L23.2148 19.1992L22.6289 23.2422L18.3711 22.8516L19.582 21.9531L17.7852 18.457ZM20.168 32.5L17.7461 29.2578L20.168 26.2891V28.3008H23.3516L22.043 25.8984L24.4258 24.4922C24.4779 24.6094 24.5625 24.7721 24.6797 24.9805C24.7969 25.1888 24.9206 25.4167 25.0508 25.6641C25.181 25.9115 25.2852 26.1393 25.3633 26.3477C25.4414 26.556 25.487 26.7318 25.5 26.875C25.5 27.0312 25.4609 27.1875 25.3828 27.3438L23.7227 30.625C23.6315 30.8073 23.5013 30.944 23.332 31.0352C23.1628 31.1263 22.9805 31.1784 22.7852 31.1914H20.168V32.5ZM31.8672 12.5H34.4453L29.1523 36.1523C27.4596 37.4154 25.7148 38.3724 23.918 39.0234C22.1211 39.6745 20.1549 40 18.0195 40C15.9102 40 13.9505 39.6745 12.1406 39.0234C10.3307 38.3724 8.58594 37.4154 6.90625 36.1523L0.675781 8.61328L0.558594 8.06641C0.519531 7.88411 0.5 7.69531 0.5 7.5C0.5 6.74479 0.688802 6.0612 1.06641 5.44922C1.44401 4.83724 1.95182 4.28385 2.58984 3.78906C3.22786 3.29427 3.9375 2.87109 4.71875 2.51953C5.5 2.16797 6.30078 1.84896 7.12109 1.5625C7.94141 1.27604 8.72917 1.0612 9.48438 0.917969C10.2396 0.77474 10.9102 0.644531 11.4961 0.527344C13.6445 0.175781 15.8125 0 18 0C18.6641 0 19.3216 0.0130208 19.9727 0.0390625C20.6237 0.0651042 21.2878 0.117188 21.9648 0.195312C21.1055 0.455729 20.2786 0.77474 19.4844 1.15234C18.6901 1.52995 17.9219 1.98568 17.1797 2.51953C16.5547 2.53255 15.8646 2.5651 15.1094 2.61719C14.3542 2.66927 13.5729 2.7474 12.7656 2.85156C11.9583 2.95573 11.138 3.09245 10.3047 3.26172C9.47135 3.43099 8.67057 3.63932 7.90234 3.88672C7.13411 4.13411 6.41146 4.42057 5.73438 4.74609C5.05729 5.07161 4.47135 5.44922 3.97656 5.87891C3.74219 6.08724 3.52083 6.32812 3.3125 6.60156C3.10417 6.875 3 7.17448 3 7.5C3 7.69531 3.03906 7.8776 3.11719 8.04688C3.19531 8.21615 3.29948 8.38542 3.42969 8.55469C3.5599 8.72396 3.69661 8.8737 3.83984 9.00391C3.98307 9.13411 4.13281 9.25781 4.28906 9.375C4.83594 9.79167 5.46094 10.1562 6.16406 10.4688C6.86719 10.7812 7.6224 11.0482 8.42969 11.2695C9.23698 11.4909 10.0573 11.6862 10.8906 11.8555C11.724 12.0247 12.5638 12.1484 13.4102 12.2266C14.2565 12.3047 15.0638 12.3763 15.832 12.4414C16.6003 12.5065 17.3229 12.526 18 12.5H18.4297C18.5729 12.5 18.7161 12.4935 18.8594 12.4805L18.8789 12.5H31.2227C30.2591 12.9557 29.2305 13.3398 28.1367 13.6523C27.043 13.9648 25.9167 14.2253 24.7578 14.4336C23.599 14.6419 22.4466 14.7852 21.3008 14.8633C20.1549 14.9414 19.0547 14.987 18 15C16.9062 15 15.7474 14.9544 14.5234 14.8633C13.2995 14.7721 12.0755 14.6094 10.8516 14.375C9.6276 14.1406 8.42969 13.8477 7.25781 13.4961C6.08594 13.1445 5.01823 12.6953 4.05469 12.1484L9.13281 34.6875C10.4349 35.599 11.8477 36.2826 13.3711 36.7383C14.8945 37.194 16.4505 37.4284 18.0391 37.4414C19.6146 37.4414 21.1576 37.2135 22.668 36.7578C24.1784 36.3021 25.5911 35.612 26.9062 34.6875L31.8672 12.5ZM38 0V10H28V7.5H33.7031C32.7135 6.71875 31.6263 6.1263 30.4414 5.72266C29.2565 5.31901 28.0326 5.11719 26.7695 5.11719C25.2852 5.11719 23.8659 5.39714 22.5117 5.95703C21.1576 6.51693 19.9466 7.32422 18.8789 8.37891L17.1211 6.62109C18.4102 5.33203 19.8815 4.34245 21.5352 3.65234C23.1888 2.96224 24.9336 2.61719 26.7695 2.61719C28.3581 2.61719 29.901 2.88411 31.3984 3.41797C32.8958 3.95182 34.263 4.72656 35.5 5.74219V0H38Z" fill="#1D3B76"/>
</svg>
